{"glyphs":{"0":{"ha":969,"x_min":0,"x_max":879,"o":"m 0 972 l 185 1157 l 694 1157 l 879 972 l 879 185 l 694 0 l 185 0 l 0 185 l 0 972 m 64 217 l 217 64 l 664 64 l 817 217 l 817 942 l 664 1094 l 217 1094 l 64 942 l 64 217 m 625 268 l 553 197 l 326 197 l 254 268 l 254 889 l 326 961 l 553 961 l 625 889 l 625 268 m 561 860 l 525 897 l 356 897 l 318 860 l 318 297 l 356 261 l 525 261 l 561 297 l 561 860 "},"1":{"ha":643,"x_min":0,"x_max":579,"o":"m 144 758 l 0 758 l 0 942 l 215 1157 l 463 1157 l 463 261 l 579 261 l 579 0 l 0 0 l 0 261 l 144 261 l 144 758 m 400 1094 l 243 1094 l 64 914 l 64 822 l 208 822 l 208 197 l 64 197 l 64 64 l 515 64 l 515 197 l 400 197 l 400 1094 "},"2":{"ha":917,"x_min":0,"x_max":833,"o":"m 467 300 l 833 300 l 833 0 l 0 0 l 0 269 l 515 785 l 515 860 l 478 897 l 356 897 l 318 860 l 318 743 l 0 743 l 0 972 l 185 1157 l 649 1157 l 833 972 l 833 667 l 467 300 m 769 692 l 769 942 l 617 1094 l 217 1094 l 64 942 l 64 807 l 254 807 l 254 889 l 326 961 l 507 961 l 579 889 l 579 758 l 64 243 l 64 64 l 769 64 l 769 236 l 314 236 l 769 692 "},"3":{"ha":963,"x_min":0,"x_max":879,"o":"m 381 713 l 525 713 l 561 749 l 561 860 l 525 897 l 356 897 l 318 860 l 318 781 l 0 781 l 0 972 l 185 1157 l 694 1157 l 879 972 l 879 629 l 831 579 l 879 529 l 879 185 l 694 0 l 185 0 l 0 185 l 0 354 l 318 354 l 318 297 l 356 261 l 525 261 l 561 297 l 561 408 l 525 446 l 381 446 l 381 713 m 444 510 l 553 510 l 625 438 l 625 268 l 553 197 l 326 197 l 254 268 l 254 290 l 64 290 l 64 217 l 217 64 l 664 64 l 817 217 l 817 503 l 740 579 l 817 656 l 817 942 l 664 1094 l 217 1094 l 64 942 l 64 844 l 254 844 l 254 889 l 326 961 l 553 961 l 625 889 l 625 719 l 553 649 l 444 649 l 444 510 "},"4":{"ha":938,"x_min":0,"x_max":874,"o":"m 824 0 l 365 0 l 365 261 l 435 261 l 435 347 l 0 347 l 0 686 l 471 1157 l 754 1157 l 754 608 l 874 608 l 874 347 l 754 347 l 754 261 l 824 261 l 824 0 m 760 197 l 690 197 l 690 411 l 810 411 l 810 544 l 690 544 l 690 1094 l 499 1094 l 64 658 l 64 411 l 499 411 l 499 197 l 429 197 l 429 64 l 760 64 l 760 197 m 499 544 l 254 544 l 254 601 l 499 844 l 499 544 m 447 719 l 324 596 l 447 596 l 447 719 "},"5":{"ha":963,"x_min":0,"x_max":879,"o":"m 318 831 l 356 794 l 706 794 l 879 621 l 879 185 l 694 0 l 185 0 l 0 185 l 0 392 l 318 392 l 318 297 l 356 261 l 525 261 l 561 297 l 561 497 l 525 535 l 185 535 l 0 719 l 0 1157 l 879 1157 l 879 897 l 318 897 l 318 831 m 254 961 l 817 961 l 817 1094 l 64 1094 l 64 751 l 217 599 l 553 599 l 625 526 l 625 268 l 553 197 l 326 197 l 254 268 l 254 328 l 64 328 l 64 217 l 217 64 l 664 64 l 817 217 l 817 589 l 674 731 l 326 731 l 254 803 l 254 961 "},"6":{"ha":963,"x_min":0,"x_max":879,"o":"m 318 694 l 694 694 l 879 510 l 879 185 l 694 0 l 185 0 l 0 185 l 0 972 l 185 1157 l 694 1157 l 879 972 l 879 783 l 561 783 l 561 860 l 525 897 l 356 897 l 318 860 l 318 694 m 254 889 l 326 961 l 553 961 l 625 889 l 625 847 l 817 847 l 817 942 l 664 1094 l 217 1094 l 64 942 l 64 217 l 217 64 l 664 64 l 817 217 l 817 478 l 664 631 l 254 631 l 254 889 m 254 426 l 326 497 l 553 497 l 625 426 l 625 268 l 553 197 l 326 197 l 254 268 l 254 426 m 318 397 l 318 297 l 356 261 l 525 261 l 561 297 l 561 397 l 525 435 l 356 435 l 318 397 "},"7":{"ha":921,"x_min":0,"x_max":858,"o":"m 858 935 l 511 0 l 178 0 l 511 897 l 261 897 l 261 828 l 0 828 l 0 1157 l 858 1157 l 858 935 m 794 1094 l 64 1094 l 64 892 l 197 892 l 197 961 l 603 961 l 274 69 l 464 69 l 794 961 l 794 1094 "},"8":{"ha":983,"x_min":24,"x_max":900,"o":"m 826 579 l 900 506 l 900 185 l 714 0 l 208 0 l 24 185 l 24 506 l 96 579 l 24 651 l 24 972 l 208 1157 l 714 1157 l 900 972 l 900 651 l 826 579 m 836 685 l 836 942 l 683 1094 l 240 1094 l 88 942 l 88 685 l 192 579 l 88 474 l 88 217 l 240 64 l 683 64 l 836 217 l 836 474 l 731 579 l 836 685 m 558 511 l 629 440 l 629 268 l 558 197 l 365 197 l 293 268 l 293 440 l 365 511 l 558 511 m 558 961 l 629 889 l 629 718 l 558 646 l 365 646 l 293 718 l 293 889 l 365 961 l 558 961 m 393 897 l 357 860 l 357 747 l 393 710 l 529 710 l 567 747 l 567 860 l 529 897 l 393 897 m 393 449 l 357 411 l 357 297 l 393 261 l 529 261 l 567 297 l 567 411 l 529 449 l 393 449 "},"9":{"ha":989,"x_min":0,"x_max":906,"o":"m 588 463 l 185 463 l 0 649 l 0 972 l 185 1157 l 719 1157 l 906 972 l 906 185 l 719 0 l 185 0 l 0 185 l 0 372 l 318 372 l 318 297 l 356 261 l 550 261 l 588 297 l 588 463 m 650 268 l 579 197 l 326 197 l 254 268 l 254 310 l 64 310 l 64 219 l 219 64 l 689 64 l 842 217 l 842 942 l 689 1094 l 217 1094 l 64 942 l 64 679 l 217 526 l 650 526 l 650 268 m 579 961 l 650 889 l 650 732 l 579 660 l 326 660 l 254 732 l 254 889 l 326 961 l 579 961 m 356 897 l 318 860 l 318 761 l 356 724 l 550 724 l 588 761 l 588 860 l 550 897 l 356 897 "}," ":{"ha":403,"x_min":0,"x_max":0,"o":""},"!":{"ha":401,"x_min":0,"x_max":318,"o":"m 318 347 l 0 347 l 0 1157 l 318 1157 l 318 347 m 318 0 l 0 0 l 0 261 l 318 261 l 318 0 m 64 64 l 254 64 l 254 197 l 64 197 l 64 64 m 64 411 l 254 411 l 254 1094 l 64 1094 l 64 411 "},"\"":{"ha":497,"x_min":0,"x_max":435,"o":"m 185 828 l 0 828 l 0 1157 l 185 1157 l 185 828 m 435 828 l 249 828 l 249 1157 l 435 1157 l 435 828 m 289 868 l 393 868 l 393 1117 l 289 1117 l 289 868 m 40 868 l 144 868 l 144 1117 l 40 1117 l 40 868 "},"#":{"ha":1125,"x_min":0,"x_max":1042,"o":"m 579 440 l 463 440 l 463 278 l 208 278 l 208 440 l 0 440 l 0 649 l 208 649 l 208 788 l 0 788 l 0 996 l 208 996 l 208 1157 l 463 1157 l 463 996 l 579 996 l 579 1157 l 833 1157 l 833 996 l 1042 996 l 1042 788 l 833 788 l 833 649 l 1042 649 l 1042 440 l 833 440 l 833 278 l 579 278 l 579 440 m 631 492 l 631 331 l 782 331 l 782 492 l 990 492 l 990 596 l 782 596 l 782 839 l 990 839 l 990 943 l 782 943 l 782 1106 l 631 1106 l 631 943 l 411 943 l 411 1106 l 261 1106 l 261 943 l 53 943 l 53 839 l 261 839 l 261 596 l 53 596 l 53 492 l 261 492 l 261 331 l 411 331 l 411 492 l 631 492 m 411 839 l 631 839 l 631 596 l 411 596 l 411 839 m 579 788 l 463 788 l 463 649 l 579 649 l 579 788 "},"$":{"ha":963,"x_min":0,"x_max":879,"o":"m 275 1083 l 275 1157 l 426 1157 l 426 1083 l 461 1083 l 461 1157 l 611 1157 l 611 1083 l 694 1083 l 879 899 l 879 719 l 561 719 l 561 835 l 525 872 l 356 872 l 318 835 l 318 718 l 356 681 l 694 681 l 879 496 l 879 260 l 694 74 l 611 74 l 611 0 l 461 0 l 461 74 l 426 74 l 426 0 l 275 0 l 275 74 l 185 74 l 0 260 l 0 433 l 318 433 l 318 324 l 356 286 l 525 286 l 561 324 l 561 435 l 525 471 l 185 471 l 0 657 l 0 899 l 185 1083 l 275 1083 m 664 1019 l 560 1019 l 560 1106 l 513 1106 l 513 1019 l 374 1019 l 374 1106 l 328 1106 l 328 1019 l 217 1019 l 64 867 l 64 688 l 217 535 l 553 535 l 625 463 l 625 294 l 553 222 l 326 222 l 254 294 l 254 369 l 64 369 l 64 290 l 217 138 l 328 138 l 328 53 l 374 53 l 374 138 l 513 138 l 513 53 l 560 53 l 560 138 l 664 138 l 817 290 l 817 464 l 664 617 l 326 617 l 254 689 l 254 864 l 326 935 l 553 935 l 625 864 l 625 782 l 817 782 l 817 867 l 664 1019 "},"&":{"ha":963,"x_min":0,"x_max":879,"o":"m 694 1083 l 879 899 l 879 706 l 561 706 l 561 786 l 525 824 l 356 824 l 318 786 l 318 733 l 356 696 l 499 696 l 499 463 l 356 463 l 318 425 l 318 372 l 356 335 l 525 335 l 561 372 l 561 428 l 879 428 l 879 260 l 694 74 l 571 74 l 571 0 l 310 0 l 310 74 l 185 74 l 0 260 l 0 529 l 50 579 l 0 629 l 0 899 l 185 1083 l 310 1083 l 310 1157 l 571 1157 l 571 1083 l 694 1083 m 518 1019 l 518 1106 l 363 1106 l 363 1019 l 217 1019 l 64 867 l 64 656 l 140 579 l 64 503 l 64 290 l 217 138 l 363 138 l 363 53 l 518 53 l 518 138 l 664 138 l 817 290 l 817 365 l 625 365 l 625 343 l 553 271 l 326 271 l 254 343 l 254 454 l 326 525 l 435 525 l 435 632 l 326 632 l 254 704 l 254 815 l 326 886 l 553 886 l 625 815 l 625 769 l 817 769 l 817 867 l 664 1019 l 518 1019 "},"'":{"ha":249,"x_min":0,"x_max":185,"o":"m 185 828 l 0 828 l 0 1157 l 185 1157 l 185 828 m 40 868 l 144 868 l 144 1117 l 40 1117 l 40 868 "},",":{"ha":401,"x_min":0,"x_max":318,"o":"m 0 0 l 0 261 l 318 261 l 318 0 l 108 -210 l 108 0 l 0 0 m 172 64 l 172 -51 l 254 32 l 254 197 l 64 197 l 64 64 l 172 64 "},"-":{"ha":544,"x_min":0,"x_max":457,"o":"m 0 449 l 0 710 l 457 710 l 457 449 l 0 449 m 393 513 l 393 646 l 64 646 l 64 513 l 393 513 "},".":{"ha":382,"x_min":0,"x_max":296,"o":"m 296 0 l 0 0 l 0 296 l 296 296 l 296 0 m 64 64 l 232 64 l 232 232 l 64 232 l 64 64 "},"/":{"ha":919,"x_min":0,"x_max":897,"o":"m 0 0 l 579 1157 l 897 1157 l 318 0 l 0 0 m 279 64 l 794 1094 l 618 1094 l 103 64 l 279 64 "},":":{"ha":401,"x_min":0,"x_max":318,"o":"m 318 0 l 0 0 l 0 261 l 318 261 l 318 0 m 318 665 l 0 665 l 0 926 l 318 926 l 318 665 m 64 729 l 254 729 l 254 863 l 64 863 l 64 729 m 64 64 l 254 64 l 254 197 l 64 197 l 64 64 "},";":{"ha":401,"x_min":0,"x_max":318,"o":"m 318 665 l 0 665 l 0 926 l 318 926 l 318 665 m 0 0 l 0 261 l 318 261 l 318 0 l 108 -210 l 108 0 l 0 0 m 64 729 l 254 729 l 254 863 l 64 863 l 64 729 m 172 64 l 172 -51 l 254 32 l 254 197 l 64 197 l 64 64 l 172 64 "},"?":{"ha":882,"x_min":0,"x_max":799,"o":"m 225 317 l 225 513 l 483 771 l 483 838 l 446 874 l 356 874 l 318 838 l 318 743 l 0 743 l 0 972 l 185 1157 l 614 1157 l 799 974 l 799 664 l 574 439 l 574 317 l 225 317 m 572 0 l 225 0 l 225 261 l 572 261 l 572 0 m 289 64 l 508 64 l 508 197 l 289 197 l 289 64 m 511 379 l 511 465 l 735 690 l 735 942 l 582 1094 l 217 1094 l 64 942 l 64 807 l 254 807 l 254 865 l 326 938 l 472 938 l 544 865 l 544 742 l 289 486 l 289 379 l 511 379 "},"A":{"ha":1132,"x_min":0,"x_max":1068,"o":"m 846 1157 l 846 897 l 788 897 l 999 261 l 1068 261 l 1068 0 l 624 0 l 624 261 l 663 261 l 644 314 l 424 314 l 406 261 l 443 261 l 443 0 l 0 0 l 0 261 l 69 261 l 282 897 l 231 897 l 231 1157 l 846 1157 m 294 1094 l 294 961 l 368 961 l 114 197 l 64 197 l 64 64 l 379 64 l 379 197 l 317 197 l 376 378 l 692 378 l 751 197 l 688 197 l 688 64 l 1004 64 l 1004 197 l 956 197 l 700 961 l 782 961 l 782 1094 l 294 1094 m 533 851 l 660 472 l 407 472 l 533 851 m 481 524 l 588 524 l 533 683 l 481 524 "},"B":{"ha":983,"x_min":0,"x_max":901,"o":"m 901 524 l 901 185 l 717 0 l 0 0 l 0 261 l 69 261 l 69 897 l 0 897 l 0 1157 l 717 1157 l 901 972 l 901 676 l 825 600 l 901 524 m 838 704 l 838 942 l 685 1094 l 64 1094 l 64 961 l 133 961 l 133 197 l 64 197 l 64 64 l 685 64 l 838 217 l 838 496 l 733 600 l 838 704 m 324 532 l 575 532 l 647 461 l 647 268 l 575 197 l 324 197 l 324 532 m 324 961 l 575 961 l 647 889 l 647 738 l 575 665 l 324 665 l 324 961 m 583 860 l 546 897 l 388 897 l 388 729 l 546 729 l 583 767 l 583 860 m 583 432 l 546 469 l 388 469 l 388 261 l 546 261 l 583 297 l 583 432 "},"C":{"ha":968,"x_min":0,"x_max":878,"o":"m 878 713 l 560 713 l 560 860 l 522 897 l 356 897 l 318 860 l 318 297 l 356 261 l 522 261 l 560 297 l 560 436 l 878 436 l 878 185 l 692 0 l 185 0 l 0 185 l 0 972 l 185 1157 l 692 1157 l 878 972 l 878 713 m 814 942 l 661 1094 l 217 1094 l 64 942 l 64 217 l 217 64 l 661 64 l 814 217 l 814 372 l 622 372 l 622 268 l 551 197 l 326 197 l 254 268 l 254 889 l 326 961 l 551 961 l 622 889 l 622 776 l 814 776 l 814 942 "},"D":{"ha":992,"x_min":0,"x_max":901,"o":"m 0 1157 l 717 1157 l 901 972 l 901 185 l 717 0 l 0 0 l 0 261 l 69 261 l 69 897 l 0 897 l 0 1157 m 64 961 l 133 961 l 133 197 l 64 197 l 64 64 l 685 64 l 838 217 l 838 942 l 685 1094 l 64 1094 l 64 961 m 324 961 l 575 961 l 647 889 l 647 268 l 575 197 l 324 197 l 324 961 m 388 261 l 546 261 l 583 297 l 583 860 l 546 897 l 388 897 l 388 261 "},"E":{"ha":935,"x_min":0,"x_max":851,"o":"m 388 261 l 590 261 l 590 307 l 851 307 l 851 0 l 0 0 l 0 261 l 69 261 l 69 897 l 0 897 l 0 1157 l 851 1157 l 851 851 l 590 851 l 590 897 l 388 897 l 388 708 l 435 708 l 435 754 l 694 754 l 694 403 l 435 403 l 435 449 l 388 449 l 388 261 m 654 243 l 654 197 l 324 197 l 324 513 l 497 513 l 497 467 l 631 467 l 631 692 l 497 692 l 497 644 l 324 644 l 324 961 l 654 961 l 654 914 l 788 914 l 788 1094 l 64 1094 l 64 961 l 133 961 l 133 197 l 64 197 l 64 64 l 788 64 l 788 243 l 654 243 "},"F":{"ha":914,"x_min":0,"x_max":851,"o":"m 435 449 l 388 449 l 388 261 l 521 261 l 521 0 l 0 0 l 0 261 l 69 261 l 69 897 l 0 897 l 0 1157 l 851 1157 l 851 857 l 590 857 l 590 897 l 388 897 l 388 708 l 435 708 l 435 754 l 694 754 l 694 403 l 435 403 l 435 449 m 497 467 l 631 467 l 631 692 l 497 692 l 497 644 l 324 644 l 324 961 l 654 961 l 654 921 l 788 921 l 788 1094 l 64 1094 l 64 961 l 133 961 l 133 197 l 64 197 l 64 64 l 457 64 l 457 197 l 324 197 l 324 513 l 497 513 l 497 467 "},"G":{"ha":972,"x_min":0,"x_max":882,"o":"m 882 643 l 882 185 l 697 0 l 185 0 l 0 185 l 0 972 l 185 1157 l 697 1157 l 882 972 l 882 714 l 564 714 l 564 860 l 526 897 l 356 897 l 318 860 l 318 299 l 356 261 l 526 261 l 564 299 l 564 407 l 476 407 l 476 643 l 882 643 m 818 581 l 542 581 l 542 469 l 628 469 l 628 268 l 558 199 l 326 199 l 254 269 l 254 889 l 326 961 l 556 961 l 628 889 l 628 778 l 818 778 l 818 942 l 665 1094 l 217 1094 l 64 942 l 64 217 l 217 64 l 657 64 l 818 224 l 818 581 "},"H":{"ha":1085,"x_min":0,"x_max":1001,"o":"m 614 261 l 614 454 l 388 454 l 388 261 l 457 261 l 457 0 l 0 0 l 0 261 l 69 261 l 69 897 l 0 897 l 0 1157 l 457 1157 l 457 897 l 388 897 l 388 739 l 614 739 l 614 897 l 544 897 l 544 1157 l 1001 1157 l 1001 897 l 932 897 l 932 261 l 1001 261 l 1001 0 l 544 0 l 544 261 l 614 261 m 678 518 l 678 197 l 608 197 l 608 64 l 938 64 l 938 197 l 868 197 l 868 961 l 938 961 l 938 1094 l 608 1094 l 608 961 l 678 961 l 678 675 l 324 675 l 324 961 l 393 961 l 393 1094 l 64 1094 l 64 961 l 133 961 l 133 197 l 64 197 l 64 64 l 393 64 l 393 197 l 324 197 l 324 518 l 678 518 "},"I":{"ha":540,"x_min":0,"x_max":457,"o":"m 457 0 l 0 0 l 0 261 l 69 261 l 69 897 l 0 897 l 0 1157 l 457 1157 l 457 897 l 388 897 l 388 261 l 457 261 l 457 0 m 393 197 l 324 197 l 324 961 l 393 961 l 393 1094 l 64 1094 l 64 961 l 133 961 l 133 197 l 64 197 l 64 64 l 393 64 l 393 197 "},"J":{"ha":946,"x_min":0,"x_max":863,"o":"m 793 897 l 793 185 l 608 0 l 185 0 l 0 185 l 0 465 l 318 465 l 318 297 l 356 261 l 438 261 l 475 297 l 475 897 l 376 897 l 376 1157 l 863 1157 l 863 897 l 793 897 m 539 268 l 467 197 l 326 197 l 254 268 l 254 401 l 64 401 l 64 206 l 217 53 l 576 53 l 729 206 l 729 961 l 799 961 l 799 1094 l 440 1094 l 440 961 l 539 961 l 539 268 "},"K":{"ha":1132,"x_min":0,"x_max":1072,"o":"m 388 261 l 457 261 l 457 0 l 0 0 l 0 261 l 69 261 l 69 897 l 0 897 l 0 1157 l 457 1157 l 457 897 l 388 897 l 388 733 l 553 897 l 522 897 l 522 1157 l 1072 1157 l 1072 897 l 976 897 l 663 583 l 985 261 l 1072 261 l 1072 0 l 522 0 l 522 261 l 554 261 l 442 372 l 388 317 l 388 261 m 324 346 l 442 464 l 711 197 l 586 197 l 586 64 l 1008 64 l 1008 197 l 939 197 l 557 579 l 939 961 l 1008 961 l 1008 1094 l 586 1094 l 586 961 l 708 961 l 324 576 l 324 961 l 393 961 l 393 1094 l 64 1094 l 64 961 l 133 961 l 133 197 l 64 197 l 64 64 l 393 64 l 393 197 l 324 197 l 324 346 "},"L":{"ha":921,"x_min":0,"x_max":857,"o":"m 388 897 l 388 261 l 596 261 l 596 331 l 857 331 l 857 0 l 0 0 l 0 261 l 69 261 l 69 897 l 0 897 l 0 1157 l 457 1157 l 457 897 l 388 897 m 393 961 l 393 1094 l 64 1094 l 64 961 l 133 961 l 133 197 l 64 197 l 64 64 l 793 64 l 793 267 l 660 267 l 660 197 l 324 197 l 324 961 l 393 961 "},"M":{"ha":1364,"x_min":0,"x_max":1281,"o":"m 640 142 l 388 561 l 388 261 l 457 261 l 457 0 l 0 0 l 0 261 l 69 261 l 69 897 l 0 897 l 0 1157 l 372 1157 l 640 710 l 908 1157 l 1281 1157 l 1281 897 l 1211 897 l 1211 261 l 1281 261 l 1281 0 l 824 0 l 824 261 l 893 261 l 893 561 l 640 142 m 640 564 l 322 1094 l 64 1094 l 64 961 l 133 961 l 133 197 l 64 197 l 64 64 l 393 64 l 393 197 l 324 197 l 324 778 l 640 251 l 956 778 l 956 197 l 886 197 l 886 64 l 1217 64 l 1217 197 l 1147 197 l 1147 961 l 1217 961 l 1217 1094 l 958 1094 l 640 564 "},"N":{"ha":1165,"x_min":0,"x_max":1082,"o":"m 699 0 l 386 518 l 386 261 l 458 261 l 458 0 l 0 0 l 0 261 l 69 261 l 69 897 l 0 897 l 0 1157 l 376 1157 l 694 628 l 694 897 l 625 897 l 625 1157 l 1082 1157 l 1082 897 l 1013 897 l 1013 261 l 1082 261 l 1082 0 l 699 0 m 758 382 l 331 1094 l 64 1094 l 64 961 l 133 961 l 133 197 l 64 197 l 64 64 l 394 64 l 394 197 l 324 197 l 324 761 l 743 64 l 1018 64 l 1018 197 l 949 197 l 949 961 l 1018 961 l 1018 1094 l 689 1094 l 689 961 l 758 961 l 758 382 "},"O":{"ha":969,"x_min":0,"x_max":879,"o":"m 0 972 l 185 1157 l 694 1157 l 879 972 l 879 185 l 694 0 l 185 0 l 0 185 l 0 972 m 64 217 l 217 64 l 664 64 l 817 217 l 817 942 l 664 1094 l 217 1094 l 64 942 l 64 217 m 625 268 l 553 197 l 326 197 l 254 268 l 254 889 l 326 961 l 553 961 l 625 889 l 625 268 m 561 860 l 525 897 l 356 897 l 318 860 l 318 297 l 356 261 l 525 261 l 561 297 l 561 860 "},"P":{"ha":1007,"x_min":0,"x_max":901,"o":"m 717 439 l 388 439 l 388 261 l 457 261 l 457 0 l 0 0 l 0 261 l 69 261 l 69 897 l 0 897 l 0 1157 l 717 1157 l 901 972 l 901 624 l 717 439 m 838 656 l 838 942 l 685 1094 l 64 1094 l 64 961 l 133 961 l 133 197 l 64 197 l 64 64 l 393 64 l 393 197 l 324 197 l 324 503 l 685 503 l 838 656 m 324 636 l 324 961 l 575 961 l 647 889 l 647 707 l 575 636 l 324 636 m 388 699 l 546 699 l 583 736 l 583 860 l 546 897 l 388 897 l 388 699 "},"Q":{"ha":996,"x_min":0,"x_max":1001,"o":"m 0 972 l 185 1157 l 694 1157 l 879 972 l 879 331 l 1001 210 l 825 33 l 776 82 l 694 0 l 185 0 l 0 185 l 0 972 m 64 217 l 217 64 l 664 64 l 775 175 l 825 124 l 911 210 l 817 304 l 817 942 l 664 1094 l 217 1094 l 64 942 l 64 217 m 625 496 l 547 574 l 463 488 l 625 324 l 625 268 l 553 197 l 326 197 l 254 268 l 254 889 l 326 961 l 553 961 l 625 889 l 625 496 m 561 860 l 525 897 l 356 897 l 318 860 l 318 297 l 356 261 l 525 261 l 561 297 l 372 488 l 547 664 l 561 650 l 561 860 "},"R":{"ha":1053,"x_min":0,"x_max":971,"o":"m 388 261 l 457 261 l 457 0 l 0 0 l 0 261 l 69 261 l 69 897 l 0 897 l 0 1157 l 717 1157 l 901 972 l 901 676 l 825 600 l 901 524 l 901 261 l 971 261 l 971 0 l 583 0 l 583 432 l 546 469 l 388 469 l 388 261 m 393 197 l 324 197 l 324 532 l 575 532 l 647 461 l 647 64 l 907 64 l 907 197 l 838 197 l 838 496 l 733 600 l 838 704 l 838 942 l 685 1094 l 64 1094 l 64 961 l 133 961 l 133 197 l 64 197 l 64 64 l 393 64 l 393 197 m 324 665 l 324 961 l 575 961 l 647 889 l 647 738 l 575 665 l 324 665 m 388 729 l 546 729 l 583 767 l 583 860 l 546 897 l 388 897 l 388 729 "},"S":{"ha":963,"x_min":0,"x_max":879,"o":"m 525 446 l 185 446 l 0 631 l 0 972 l 185 1157 l 694 1157 l 879 972 l 879 744 l 561 744 l 561 860 l 525 897 l 356 897 l 318 860 l 318 743 l 356 706 l 694 706 l 879 521 l 879 185 l 694 0 l 185 0 l 0 185 l 0 407 l 318 407 l 318 297 l 356 261 l 525 261 l 561 297 l 561 408 l 525 446 m 625 438 l 625 268 l 553 197 l 326 197 l 254 268 l 254 344 l 64 344 l 64 217 l 217 64 l 664 64 l 817 217 l 817 490 l 664 643 l 326 643 l 254 714 l 254 889 l 326 961 l 553 961 l 625 889 l 625 808 l 817 808 l 817 942 l 664 1094 l 217 1094 l 64 942 l 64 663 l 217 510 l 553 510 l 625 438 "},"T":{"ha":1042,"x_min":0,"x_max":978,"o":"m 978 828 l 718 828 l 718 897 l 649 897 l 649 261 l 718 261 l 718 0 l 261 0 l 261 261 l 331 261 l 331 897 l 261 897 l 261 828 l 0 828 l 0 1157 l 978 1157 l 978 828 m 914 892 l 914 1094 l 64 1094 l 64 892 l 197 892 l 197 961 l 393 961 l 393 197 l 324 197 l 324 64 l 654 64 l 654 197 l 585 197 l 585 961 l 782 961 l 782 892 l 914 892 "},"U":{"ha":1101,"x_min":0,"x_max":1018,"o":"m 949 185 l 764 0 l 254 0 l 69 185 l 69 897 l 0 897 l 0 1157 l 457 1157 l 457 897 l 388 897 l 388 297 l 425 261 l 594 261 l 631 297 l 631 897 l 561 897 l 561 1157 l 1018 1157 l 1018 897 l 949 897 l 949 185 m 886 961 l 956 961 l 956 1094 l 625 1094 l 625 961 l 694 961 l 694 268 l 622 197 l 396 197 l 324 268 l 324 961 l 393 961 l 393 1094 l 64 1094 l 64 961 l 133 961 l 133 217 l 286 64 l 733 64 l 886 217 l 886 961 "},"V":{"ha":1190,"x_min":0,"x_max":1126,"o":"m 685 897 l 647 897 l 647 1157 l 1126 1157 l 1126 897 l 1022 897 l 810 261 l 869 261 l 869 0 l 254 0 l 254 261 l 304 261 l 93 897 l 0 897 l 0 1157 l 467 1157 l 467 897 l 428 897 l 557 511 l 685 897 m 557 307 l 339 961 l 403 961 l 403 1094 l 64 1094 l 64 961 l 136 961 l 392 197 l 317 197 l 317 64 l 806 64 l 806 197 l 724 197 l 978 961 l 1063 961 l 1063 1094 l 711 1094 l 711 961 l 775 961 l 557 307 "},"W":{"ha":1889,"x_min":0,"x_max":1825,"o":"m 821 261 l 858 261 l 858 0 l 267 0 l 267 261 l 304 261 l 93 897 l 0 897 l 0 1157 l 483 1157 l 483 897 l 438 897 l 565 515 l 692 897 l 654 897 l 654 1157 l 1171 1157 l 1171 897 l 1135 897 l 1261 515 l 1389 897 l 1351 897 l 1351 1157 l 1825 1157 l 1825 897 l 1733 897 l 1522 261 l 1560 261 l 1560 0 l 968 0 l 968 261 l 1006 261 l 914 539 l 821 261 m 914 746 l 1096 197 l 1032 197 l 1032 64 l 1497 64 l 1497 197 l 1428 197 l 1682 961 l 1761 961 l 1761 1094 l 1414 1094 l 1414 961 l 1479 961 l 1261 308 l 1044 961 l 1108 961 l 1108 1094 l 718 1094 l 718 961 l 782 961 l 565 308 l 347 961 l 421 961 l 421 1094 l 64 1094 l 64 961 l 144 961 l 400 197 l 331 197 l 331 64 l 796 64 l 796 197 l 731 197 l 914 746 "},"X":{"ha":1332,"x_min":0,"x_max":1268,"o":"m 643 364 l 539 261 l 550 261 l 550 0 l 0 0 l 0 261 l 108 261 l 428 579 l 108 897 l 0 897 l 0 1157 l 550 1157 l 550 897 l 539 897 l 643 794 l 746 897 l 735 897 l 735 1157 l 1268 1157 l 1268 897 l 1176 897 l 858 579 l 1176 261 l 1268 261 l 1268 0 l 735 0 l 735 261 l 746 261 l 643 364 m 900 197 l 799 197 l 799 64 l 1206 64 l 1206 197 l 1149 197 l 767 579 l 1149 961 l 1206 961 l 1206 1094 l 799 1094 l 799 961 l 900 961 l 643 703 l 385 961 l 486 961 l 486 1094 l 64 1094 l 64 961 l 136 961 l 518 579 l 136 197 l 64 197 l 64 64 l 486 64 l 486 197 l 385 197 l 643 456 l 900 197 "},"Y":{"ha":1332,"x_min":0,"x_max":1268,"o":"m 801 522 l 801 261 l 871 261 l 871 0 l 414 0 l 414 261 l 483 261 l 483 522 l 108 897 l 0 897 l 0 1157 l 550 1157 l 550 897 l 539 897 l 643 794 l 746 897 l 735 897 l 735 1157 l 1268 1157 l 1268 897 l 1176 897 l 801 522 m 738 197 l 738 550 l 1149 961 l 1206 961 l 1206 1094 l 799 1094 l 799 961 l 900 961 l 643 703 l 385 961 l 486 961 l 486 1094 l 64 1094 l 64 961 l 136 961 l 547 550 l 547 197 l 478 197 l 478 53 l 807 53 l 807 197 l 738 197 "},"Z":{"ha":949,"x_min":0,"x_max":865,"o":"m 414 261 l 604 261 l 604 331 l 865 331 l 865 0 l 0 0 l 0 219 l 451 897 l 261 897 l 261 828 l 0 828 l 0 1157 l 865 1157 l 865 938 l 414 261 m 801 961 l 801 1094 l 64 1094 l 64 892 l 197 892 l 197 961 l 574 961 l 64 197 l 64 64 l 801 64 l 801 267 l 668 267 l 668 197 l 292 197 l 801 961 "},"a":{"ha":938,"x_min":0,"x_max":854,"o":"m 678 926 l 678 718 l 629 718 l 799 208 l 854 208 l 854 0 l 499 0 l 499 208 l 531 208 l 517 251 l 339 251 l 324 208 l 354 208 l 354 0 l 0 0 l 0 208 l 56 208 l 225 718 l 185 718 l 185 926 l 678 926 m 235 875 l 235 768 l 294 768 l 90 157 l 51 157 l 51 51 l 303 51 l 303 157 l 253 157 l 301 303 l 553 303 l 601 157 l 550 157 l 550 51 l 803 51 l 803 157 l 764 157 l 560 768 l 626 768 l 626 875 l 235 875 m 428 681 l 528 378 l 326 378 l 428 681 m 385 419 l 469 419 l 428 546 l 385 419 "},"b":{"ha":803,"x_min":0,"x_max":721,"o":"m 721 419 l 721 149 l 574 0 l 0 0 l 0 208 l 56 208 l 56 718 l 0 718 l 0 926 l 574 926 l 721 778 l 721 540 l 660 479 l 721 419 m 671 563 l 671 753 l 549 875 l 51 875 l 51 768 l 107 768 l 107 157 l 51 157 l 51 51 l 549 51 l 671 174 l 671 396 l 588 479 l 671 563 m 260 426 l 461 426 l 518 368 l 518 215 l 461 157 l 260 157 l 260 426 m 260 768 l 461 768 l 518 711 l 518 590 l 461 532 l 260 532 l 260 768 m 467 688 l 438 718 l 310 718 l 310 583 l 438 583 l 467 614 l 467 688 m 467 344 l 438 375 l 310 375 l 310 208 l 438 208 l 467 239 l 467 344 "},"c":{"ha":785,"x_min":0,"x_max":701,"o":"m 701 571 l 447 571 l 447 688 l 418 718 l 285 718 l 254 688 l 254 239 l 285 208 l 418 208 l 447 239 l 447 350 l 701 350 l 701 149 l 553 0 l 149 0 l 0 149 l 0 778 l 149 926 l 553 926 l 701 778 l 701 571 m 650 753 l 529 875 l 174 875 l 51 753 l 51 174 l 174 51 l 529 51 l 650 174 l 650 299 l 497 299 l 497 215 l 442 157 l 261 157 l 204 215 l 204 711 l 261 768 l 442 768 l 497 711 l 497 622 l 650 622 l 650 753 "},"d":{"ha":804,"x_min":0,"x_max":721,"o":"m 0 926 l 574 926 l 721 778 l 721 149 l 574 0 l 0 0 l 0 208 l 56 208 l 56 718 l 0 718 l 0 926 m 51 768 l 107 768 l 107 157 l 51 157 l 51 51 l 549 51 l 671 174 l 671 753 l 549 875 l 51 875 l 51 768 m 260 768 l 461 768 l 518 711 l 518 215 l 461 157 l 260 157 l 260 768 m 310 208 l 438 208 l 467 239 l 467 688 l 438 718 l 310 718 l 310 208 "},"e":{"ha":764,"x_min":0,"x_max":681,"o":"m 310 208 l 472 208 l 472 246 l 681 246 l 681 0 l 0 0 l 0 208 l 56 208 l 56 718 l 0 718 l 0 926 l 681 926 l 681 681 l 472 681 l 472 718 l 310 718 l 310 567 l 347 567 l 347 604 l 556 604 l 556 322 l 347 322 l 347 358 l 310 358 l 310 208 m 524 194 l 524 157 l 260 157 l 260 410 l 399 410 l 399 372 l 504 372 l 504 553 l 399 553 l 399 517 l 260 517 l 260 768 l 524 768 l 524 732 l 629 732 l 629 875 l 51 875 l 51 768 l 107 768 l 107 157 l 51 157 l 51 51 l 629 51 l 629 194 l 524 194 "},"f":{"ha":744,"x_min":0,"x_max":681,"o":"m 347 358 l 310 358 l 310 208 l 417 208 l 417 0 l 0 0 l 0 208 l 56 208 l 56 718 l 0 718 l 0 926 l 681 926 l 681 685 l 472 685 l 472 718 l 310 718 l 310 567 l 347 567 l 347 604 l 556 604 l 556 322 l 347 322 l 347 358 m 399 372 l 504 372 l 504 553 l 399 553 l 399 517 l 260 517 l 260 768 l 524 768 l 524 736 l 629 736 l 629 875 l 51 875 l 51 768 l 107 768 l 107 157 l 51 157 l 51 51 l 365 51 l 365 157 l 260 157 l 260 410 l 399 410 l 399 372 "},"g":{"ha":788,"x_min":0,"x_max":706,"o":"m 706 515 l 706 149 l 558 0 l 149 0 l 0 149 l 0 778 l 149 926 l 558 926 l 706 778 l 706 572 l 451 572 l 451 688 l 421 718 l 285 718 l 254 688 l 254 239 l 285 210 l 421 210 l 451 239 l 451 325 l 381 325 l 381 515 l 706 515 m 656 464 l 433 464 l 433 376 l 503 376 l 503 214 l 447 158 l 261 158 l 204 215 l 204 711 l 261 768 l 444 768 l 503 711 l 503 622 l 656 622 l 656 753 l 532 875 l 174 875 l 51 753 l 51 174 l 174 51 l 525 51 l 656 178 l 656 464 "},"h":{"ha":885,"x_min":0,"x_max":801,"o":"m 490 208 l 490 364 l 310 364 l 310 208 l 365 208 l 365 0 l 0 0 l 0 208 l 56 208 l 56 718 l 0 718 l 0 926 l 365 926 l 365 718 l 310 718 l 310 590 l 490 590 l 490 718 l 435 718 l 435 926 l 801 926 l 801 718 l 746 718 l 746 208 l 801 208 l 801 0 l 435 0 l 435 208 l 490 208 m 542 414 l 542 157 l 486 157 l 486 51 l 750 51 l 750 157 l 694 157 l 694 768 l 750 768 l 750 875 l 486 875 l 486 768 l 542 768 l 542 539 l 260 539 l 260 768 l 315 768 l 315 875 l 51 875 l 51 768 l 107 768 l 107 157 l 51 157 l 51 51 l 315 51 l 315 157 l 260 157 l 260 414 l 542 414 "},"i":{"ha":449,"x_min":0,"x_max":365,"o":"m 365 0 l 0 0 l 0 208 l 56 208 l 56 718 l 0 718 l 0 926 l 365 926 l 365 718 l 310 718 l 310 208 l 365 208 l 365 0 m 315 157 l 260 157 l 260 768 l 315 768 l 315 875 l 51 875 l 51 768 l 107 768 l 107 157 l 51 157 l 51 51 l 315 51 l 315 157 "},"j":{"ha":774,"x_min":0,"x_max":690,"o":"m 635 718 l 635 149 l 486 0 l 149 0 l 0 149 l 0 372 l 254 372 l 254 239 l 285 208 l 350 208 l 379 239 l 379 718 l 301 718 l 301 926 l 690 926 l 690 718 l 635 718 m 431 215 l 372 157 l 261 157 l 204 215 l 204 322 l 51 322 l 51 164 l 174 42 l 461 42 l 583 164 l 583 768 l 639 768 l 639 875 l 351 875 l 351 768 l 431 768 l 431 215 "},"k":{"ha":940,"x_min":0,"x_max":858,"o":"m 310 208 l 365 208 l 365 0 l 0 0 l 0 208 l 56 208 l 56 718 l 0 718 l 0 926 l 365 926 l 365 718 l 310 718 l 310 586 l 442 718 l 418 718 l 418 926 l 858 926 l 858 718 l 782 718 l 531 467 l 789 208 l 858 208 l 858 0 l 418 0 l 418 208 l 443 208 l 354 297 l 310 254 l 310 208 m 260 276 l 354 372 l 568 157 l 469 157 l 469 51 l 807 51 l 807 157 l 751 157 l 446 463 l 751 768 l 807 768 l 807 875 l 469 875 l 469 768 l 567 768 l 260 461 l 260 768 l 315 768 l 315 875 l 51 875 l 51 768 l 107 768 l 107 157 l 51 157 l 51 51 l 315 51 l 315 157 l 260 157 l 260 276 "},"l":{"ha":749,"x_min":0,"x_max":685,"o":"m 310 718 l 310 208 l 476 208 l 476 264 l 685 264 l 685 0 l 0 0 l 0 208 l 56 208 l 56 718 l 0 718 l 0 926 l 365 926 l 365 718 l 310 718 m 315 768 l 315 875 l 51 875 l 51 768 l 107 768 l 107 157 l 51 157 l 51 51 l 635 51 l 635 213 l 528 213 l 528 157 l 260 157 l 260 768 l 315 768 "},"m":{"ha":1107,"x_min":0,"x_max":1025,"o":"m 511 114 l 310 449 l 310 208 l 365 208 l 365 0 l 0 0 l 0 208 l 56 208 l 56 718 l 0 718 l 0 926 l 297 926 l 511 567 l 726 926 l 1025 926 l 1025 718 l 969 718 l 969 208 l 1025 208 l 1025 0 l 658 0 l 658 208 l 714 208 l 714 449 l 511 114 m 511 451 l 257 875 l 51 875 l 51 768 l 107 768 l 107 157 l 51 157 l 51 51 l 315 51 l 315 157 l 260 157 l 260 622 l 511 201 l 765 622 l 765 157 l 710 157 l 710 51 l 974 51 l 974 157 l 918 157 l 918 768 l 974 768 l 974 875 l 767 875 l 511 451 "},"n":{"ha":949,"x_min":0,"x_max":865,"o":"m 558 0 l 310 414 l 310 208 l 367 208 l 367 0 l 0 0 l 0 208 l 56 208 l 56 718 l 0 718 l 0 926 l 301 926 l 556 503 l 556 718 l 500 718 l 500 926 l 865 926 l 865 718 l 810 718 l 810 208 l 865 208 l 865 0 l 558 0 m 607 306 l 265 875 l 51 875 l 51 768 l 107 768 l 107 157 l 51 157 l 51 51 l 317 51 l 317 157 l 260 157 l 260 608 l 594 51 l 815 51 l 815 157 l 760 157 l 760 768 l 815 768 l 815 875 l 551 875 l 551 768 l 607 768 l 607 306 "},"o":{"ha":788,"x_min":0,"x_max":704,"o":"m 0 778 l 149 926 l 556 926 l 704 778 l 704 149 l 556 0 l 149 0 l 0 149 l 0 778 m 51 174 l 174 51 l 531 51 l 653 174 l 653 753 l 531 875 l 174 875 l 51 753 l 51 174 m 500 215 l 442 157 l 261 157 l 204 215 l 204 711 l 261 768 l 442 768 l 500 711 l 500 215 m 449 688 l 419 718 l 285 718 l 254 688 l 254 239 l 285 208 l 419 208 l 449 239 l 449 688 "},"p":{"ha":822,"x_min":0,"x_max":721,"o":"m 574 351 l 310 351 l 310 208 l 365 208 l 365 0 l 0 0 l 0 208 l 56 208 l 56 718 l 0 718 l 0 926 l 574 926 l 721 778 l 721 499 l 574 351 m 671 525 l 671 753 l 549 875 l 51 875 l 51 768 l 107 768 l 107 157 l 51 157 l 51 51 l 315 51 l 315 157 l 260 157 l 260 401 l 549 401 l 671 525 m 260 508 l 260 768 l 461 768 l 518 711 l 518 567 l 461 508 l 260 508 m 310 560 l 438 560 l 467 589 l 467 688 l 438 718 l 310 718 l 310 560 "},"q":{"ha":803,"x_min":0,"x_max":801,"o":"m 0 778 l 149 926 l 556 926 l 704 778 l 704 265 l 801 168 l 660 26 l 622 67 l 556 0 l 149 0 l 0 149 l 0 778 m 51 174 l 174 51 l 531 51 l 619 140 l 660 100 l 729 168 l 653 243 l 653 753 l 531 875 l 174 875 l 51 753 l 51 174 m 500 396 l 438 458 l 369 390 l 500 260 l 500 215 l 442 157 l 261 157 l 204 215 l 204 711 l 261 768 l 442 768 l 500 711 l 500 396 m 449 688 l 419 718 l 285 718 l 254 688 l 254 239 l 285 208 l 419 208 l 449 239 l 297 390 l 438 531 l 449 519 l 449 688 "},"r":{"ha":858,"x_min":0,"x_max":776,"o":"m 310 208 l 365 208 l 365 0 l 0 0 l 0 208 l 56 208 l 56 718 l 0 718 l 0 926 l 574 926 l 721 778 l 721 540 l 660 479 l 721 419 l 721 208 l 776 208 l 776 0 l 467 0 l 467 344 l 438 375 l 310 375 l 310 208 m 315 157 l 260 157 l 260 426 l 461 426 l 518 368 l 518 51 l 726 51 l 726 157 l 671 157 l 671 396 l 588 479 l 671 563 l 671 753 l 549 875 l 51 875 l 51 768 l 107 768 l 107 157 l 51 157 l 51 51 l 315 51 l 315 157 m 260 532 l 260 768 l 461 768 l 518 711 l 518 590 l 461 532 l 260 532 m 310 583 l 438 583 l 467 614 l 467 688 l 438 718 l 310 718 l 310 583 "},"s":{"ha":788,"x_min":0,"x_max":704,"o":"m 419 357 l 149 357 l 0 504 l 0 778 l 149 926 l 556 926 l 704 778 l 704 594 l 449 594 l 449 688 l 419 718 l 285 718 l 254 688 l 254 594 l 285 565 l 556 565 l 704 417 l 704 149 l 556 0 l 149 0 l 0 149 l 0 326 l 254 326 l 254 239 l 285 208 l 419 208 l 449 239 l 449 326 l 419 357 m 500 350 l 500 215 l 442 157 l 261 157 l 204 215 l 204 275 l 51 275 l 51 174 l 174 51 l 531 51 l 653 174 l 653 392 l 531 514 l 261 514 l 204 572 l 204 711 l 261 768 l 442 768 l 500 711 l 500 646 l 653 646 l 653 753 l 531 875 l 174 875 l 51 753 l 51 531 l 174 407 l 442 407 l 500 350 "},"t":{"ha":844,"x_min":0,"x_max":782,"o":"m 782 663 l 574 663 l 574 718 l 518 718 l 518 210 l 574 210 l 574 1 l 208 1 l 208 210 l 264 210 l 264 718 l 208 718 l 208 663 l 0 663 l 0 926 l 782 926 l 782 663 m 731 713 l 731 875 l 51 875 l 51 713 l 157 713 l 157 768 l 315 768 l 315 158 l 260 158 l 260 53 l 522 53 l 522 158 l 467 158 l 467 768 l 624 768 l 624 713 l 731 713 "},"u":{"ha":879,"x_min":0,"x_max":815,"o":"m 760 149 l 611 0 l 204 0 l 56 149 l 56 718 l 0 718 l 0 926 l 365 926 l 365 718 l 310 718 l 310 239 l 340 208 l 475 208 l 504 239 l 504 718 l 449 718 l 449 926 l 815 926 l 815 718 l 760 718 l 760 149 m 708 768 l 764 768 l 764 875 l 500 875 l 500 768 l 556 768 l 556 215 l 497 157 l 317 157 l 260 215 l 260 768 l 315 768 l 315 875 l 51 875 l 51 768 l 107 768 l 107 174 l 229 51 l 586 51 l 708 174 l 708 768 "},"v":{"ha":964,"x_min":0,"x_max":900,"o":"m 549 718 l 518 718 l 518 926 l 900 926 l 900 718 l 817 718 l 649 208 l 696 208 l 696 0 l 203 0 l 203 208 l 243 208 l 74 718 l 0 718 l 0 926 l 372 926 l 372 718 l 343 718 l 446 410 l 549 718 m 446 246 l 271 768 l 322 768 l 322 875 l 51 875 l 51 768 l 108 768 l 313 157 l 254 157 l 254 51 l 644 51 l 644 157 l 579 157 l 782 768 l 850 768 l 850 875 l 568 875 l 568 768 l 619 768 l 446 246 "},"w":{"ha":1524,"x_min":0,"x_max":1461,"o":"m 657 208 l 688 208 l 688 0 l 213 0 l 213 208 l 243 208 l 74 718 l 0 718 l 0 926 l 386 926 l 386 718 l 350 718 l 451 413 l 553 718 l 524 718 l 524 926 l 938 926 l 938 718 l 907 718 l 1010 413 l 1111 718 l 1081 718 l 1081 926 l 1461 926 l 1461 718 l 1386 718 l 1218 208 l 1247 208 l 1247 0 l 775 0 l 775 208 l 804 208 l 731 431 l 657 208 m 731 596 l 878 157 l 825 157 l 825 51 l 1197 51 l 1197 157 l 1142 157 l 1344 768 l 1410 768 l 1410 875 l 1132 875 l 1132 768 l 1183 768 l 1010 247 l 836 768 l 886 768 l 886 875 l 574 875 l 574 768 l 626 768 l 451 247 l 278 768 l 336 768 l 336 875 l 51 875 l 51 768 l 115 768 l 319 157 l 264 157 l 264 51 l 636 51 l 636 157 l 585 157 l 731 596 "},"x":{"ha":1090,"x_min":0,"x_max":1026,"o":"m 519 289 l 436 207 l 446 207 l 446 0 l 0 0 l 0 207 l 88 207 l 346 461 l 88 714 l 0 714 l 0 921 l 446 921 l 446 714 l 436 714 l 519 632 l 603 714 l 594 714 l 594 921 l 1026 921 l 1026 714 l 953 714 l 694 461 l 953 207 l 1026 207 l 1026 0 l 594 0 l 594 207 l 603 207 l 519 289 m 729 157 l 647 157 l 647 51 l 976 51 l 976 157 l 929 157 l 621 461 l 929 765 l 976 765 l 976 871 l 647 871 l 647 765 l 729 765 l 519 560 l 311 765 l 393 765 l 393 871 l 53 871 l 53 765 l 111 765 l 421 461 l 111 157 l 53 157 l 53 51 l 393 51 l 393 157 l 311 157 l 519 363 l 729 157 "},"y":{"ha":1076,"x_min":0,"x_max":1014,"o":"m 640 418 l 640 210 l 696 210 l 696 1 l 331 1 l 331 210 l 386 210 l 386 418 l 88 718 l 0 718 l 0 926 l 440 926 l 440 718 l 431 718 l 514 636 l 596 718 l 588 718 l 588 926 l 1014 926 l 1014 718 l 940 718 l 640 418 m 589 158 l 589 442 l 918 768 l 963 768 l 963 875 l 638 875 l 638 768 l 719 768 l 514 563 l 307 768 l 389 768 l 389 875 l 51 875 l 51 768 l 108 768 l 438 442 l 438 158 l 382 158 l 382 43 l 644 43 l 644 158 l 589 158 "},"z":{"ha":775,"x_min":0,"x_max":692,"o":"m 331 208 l 483 208 l 483 264 l 692 264 l 692 0 l 0 0 l 0 176 l 361 718 l 208 718 l 208 663 l 0 663 l 0 926 l 692 926 l 692 750 l 331 208 m 642 768 l 642 875 l 51 875 l 51 713 l 157 713 l 157 768 l 458 768 l 51 157 l 51 51 l 642 51 l 642 213 l 535 213 l 535 157 l 233 157 l 642 768 "},"‘":{"ha":406,"x_min":0,"x_max":283,"o":"m 210 897 l 210 688 l 0 897 l 0 1157 l 283 1157 l 283 897 l 210 897 m 219 961 l 219 1094 l 64 1094 l 64 947 l 146 865 l 146 961 l 219 961 "},"’":{"ha":406,"x_min":0,"x_max":283,"o":"m 0 897 l 0 1157 l 283 1157 l 283 897 l 74 688 l 74 897 l 0 897 m 138 961 l 138 865 l 219 947 l 219 1094 l 64 1094 l 64 961 l 138 961 "},"“":{"ha":718,"x_min":0,"x_max":642,"o":"m 567 897 l 567 688 l 358 897 l 358 1157 l 642 1157 l 642 897 l 567 897 m 210 897 l 210 688 l 0 897 l 0 1157 l 283 1157 l 283 897 l 210 897 m 578 961 l 578 1094 l 421 1094 l 421 947 l 504 865 l 504 961 l 578 961 m 219 961 l 219 1094 l 64 1094 l 64 947 l 146 865 l 146 961 l 219 961 "},"”":{"ha":718,"x_min":0,"x_max":642,"o":"m 0 897 l 0 1157 l 283 1157 l 283 897 l 74 688 l 74 897 l 0 897 m 358 897 l 358 1157 l 642 1157 l 642 897 l 432 688 l 432 897 l 358 897 m 138 961 l 138 865 l 219 947 l 219 1094 l 64 1094 l 64 961 l 138 961 m 496 961 l 496 865 l 578 947 l 578 1094 l 421 1094 l 421 961 l 496 961 "},"•":{"ha":776,"x_min":0,"x_max":694,"o":"m 694 579 q 643 386 694 464 q 515 269 592 308 q 347 231 438 231 q 180 269 257 231 q 51 385 103 308 q 0 579 0 463 q 51 772 0 694 q 180 888 103 849 q 347 926 257 926 q 515 888 438 926 q 643 772 592 849 q 694 579 694 694 m 64 579 q 106 422 64 485 q 210 326 147 358 q 347 294 274 294 q 484 326 421 294 q 589 422 547 358 q 631 579 631 485 q 589 737 631 674 q 484 831 547 800 q 347 863 421 863 q 210 831 274 863 q 106 737 147 800 q 64 579 64 674 "},"":{"ha":0,"x_min":0,"x_max":0,"o":""},"":{"ha":0,"x_min":0,"x_max":0,"o":""},"":{"ha":0,"x_min":0,"x_max":0,"o":""}}}
